<svg width="119" height="119" viewBox="0 0 119 119" fill="none" xmlns="http://www.w3.org/2000/svg">
<path fill-rule="evenodd" clip-rule="evenodd" d="M35.7338 118.569C42.2302 117.334 50.2027 116.348 59.3179 116.356C68.3329 116.364 76.2271 117.342 82.6747 118.568L66.1217 78.6059C63.9609 79.3799 61.6324 79.8015 59.2055 79.8015C56.7779 79.8015 54.4488 79.3797 52.2876 78.6053L35.7338 118.569ZM40.6597 68.0575C42.6876 72.3417 46.1563 75.8107 50.4402 77.8391L33.9358 117.684C30.8967 112.336 26.2586 105.474 19.3642 98.6359C12.7042 92.0283 6.05156 87.538 0.813569 84.5625L40.6597 68.0575ZM50.4408 40.7494C46.1571 42.7775 42.6885 46.2461 40.6604 50.5298L0.782559 34.0117C6.37783 30.6826 13.4096 25.7237 20.3976 18.5293C26.5081 12.2406 30.867 6.00983 33.9232 0.872666L50.4408 40.7494ZM52.2883 39.9832L35.7265 0C42.326 1.16704 50.2954 2.06836 59.3366 2.06052C68.2643 2.0527 76.1419 1.15719 82.6823 0.000527332L66.121 39.9826C63.9604 39.2088 61.6322 38.7873 59.2055 38.7873C56.7782 38.7873 54.4493 39.2091 52.2883 39.9832ZM77.7503 50.5292C75.7219 46.2452 72.2527 42.7765 67.9685 40.7486L84.4133 1.04777C86.6724 5.98799 90.5295 12.8346 96.993 19.5689C104.396 27.2806 112.167 31.6669 117.452 34.0842L77.7503 50.5292ZM78.517 66.2107C79.291 64.0499 79.7126 61.7214 79.7126 59.2944C79.7126 56.8668 79.2908 54.5378 78.5165 52.3766L118.427 35.845C117.019 41.9245 115.793 49.702 115.747 58.759C115.698 68.2967 116.969 76.4525 118.426 82.7419L78.517 66.2107ZM67.9692 77.8399C72.2536 75.8117 75.7228 72.3426 77.751 68.0582L117.708 84.609C112.433 88.1519 106.368 92.8244 100.199 98.8953C93.4202 105.563 88.3078 112.158 84.5203 117.797L67.9692 77.8399ZM39.8943 52.3773C39.1201 54.5383 38.6984 56.8671 38.6984 59.2944C38.6984 61.7211 39.1199 64.0494 39.8938 66.21L0.000250044 82.7346C1.49834 76.5133 2.83189 68.3503 2.78127 58.7611C2.73271 49.6541 1.44756 41.8692 0 35.8523L39.8943 52.3773Z" fill="black"/>
</svg>